<mxfile host="app.diagrams.net" agent="Mozilla/5.0 (X11; Linux x86_64; rv:136.0) Gecko/20100101 Firefox/136.0" version="26.2.4">
  <diagram name="Page-1" id="Q00dSQYoOIo-OqPkkaeh">
    <mxGraphModel dx="1935" dy="1787" grid="1" gridSize="10" guides="1" tooltips="1" connect="1" arrows="1" fold="1" page="1" pageScale="1" pageWidth="827" pageHeight="1169" math="0" shadow="0">
      <root>
        <mxCell id="0" />
        <mxCell id="1" parent="0" />
        <mxCell id="Ih_CoEJuA9EiDlVNxRPU-4" value="balance" style="ellipse;whiteSpace=wrap;html=1;align=center;dashed=1;" parent="1" vertex="1">
          <mxGeometry x="680" y="246" width="100" height="40" as="geometry" />
        </mxCell>
        <mxCell id="9OvoRHuQcotsG7hngp5x-1" value="user" style="whiteSpace=wrap;html=1;align=center;" parent="1" vertex="1">
          <mxGeometry x="510" y="180" width="100" height="40" as="geometry" />
        </mxCell>
        <mxCell id="9OvoRHuQcotsG7hngp5x-2" value="user_id" style="ellipse;whiteSpace=wrap;html=1;align=center;fontStyle=4;" parent="1" vertex="1">
          <mxGeometry x="660" y="130" width="100" height="40" as="geometry" />
        </mxCell>
        <mxCell id="9OvoRHuQcotsG7hngp5x-9" value="registration_date" style="ellipse;whiteSpace=wrap;html=1;align=center;" parent="1" vertex="1">
          <mxGeometry x="670" y="190" width="100" height="40" as="geometry" />
        </mxCell>
        <mxCell id="9OvoRHuQcotsG7hngp5x-15" value="" style="endArrow=none;html=1;rounded=0;exitX=1;exitY=0.75;exitDx=0;exitDy=0;entryX=0;entryY=0.5;entryDx=0;entryDy=0;" parent="1" source="9OvoRHuQcotsG7hngp5x-1" target="9OvoRHuQcotsG7hngp5x-9" edge="1">
          <mxGeometry width="50" height="50" relative="1" as="geometry">
            <mxPoint x="650" y="240" as="sourcePoint" />
            <mxPoint x="680" y="230" as="targetPoint" />
          </mxGeometry>
        </mxCell>
        <mxCell id="9OvoRHuQcotsG7hngp5x-18" value="" style="endArrow=none;html=1;rounded=0;entryX=0;entryY=0.5;entryDx=0;entryDy=0;exitX=0.75;exitY=0;exitDx=0;exitDy=0;" parent="1" source="9OvoRHuQcotsG7hngp5x-1" target="9OvoRHuQcotsG7hngp5x-2" edge="1">
          <mxGeometry width="50" height="50" relative="1" as="geometry">
            <mxPoint x="510" y="215" as="sourcePoint" />
            <mxPoint x="710" y="260" as="targetPoint" />
          </mxGeometry>
        </mxCell>
        <mxCell id="9OvoRHuQcotsG7hngp5x-20" value="session" style="whiteSpace=wrap;html=1;align=center;" parent="1" vertex="1">
          <mxGeometry x="510" y="786.86" width="100" height="40" as="geometry" />
        </mxCell>
        <mxCell id="9OvoRHuQcotsG7hngp5x-21" value="date_time" style="ellipse;whiteSpace=wrap;html=1;align=center;" parent="1" vertex="1">
          <mxGeometry x="720" y="841" width="100" height="40" as="geometry" />
        </mxCell>
        <mxCell id="9OvoRHuQcotsG7hngp5x-22" value="session_id" style="ellipse;whiteSpace=wrap;html=1;align=center;fontStyle=4;" parent="1" vertex="1">
          <mxGeometry x="650" y="896.86" width="100" height="40" as="geometry" />
        </mxCell>
        <mxCell id="9OvoRHuQcotsG7hngp5x-23" value="type" style="ellipse;whiteSpace=wrap;html=1;align=center;" parent="1" vertex="1">
          <mxGeometry x="510" y="901.86" width="100" height="40" as="geometry" />
        </mxCell>
        <mxCell id="9OvoRHuQcotsG7hngp5x-24" value="" style="endArrow=none;dashed=1;html=1;rounded=0;exitX=0.5;exitY=1;exitDx=0;exitDy=0;entryX=0.5;entryY=0;entryDx=0;entryDy=0;" parent="1" source="9OvoRHuQcotsG7hngp5x-23" target="9OvoRHuQcotsG7hngp5x-25" edge="1">
          <mxGeometry width="50" height="50" relative="1" as="geometry">
            <mxPoint x="780" y="676.86" as="sourcePoint" />
            <mxPoint x="690" y="906.86" as="targetPoint" />
          </mxGeometry>
        </mxCell>
        <mxCell id="9OvoRHuQcotsG7hngp5x-25" value="Free, Class, Aqua Aerobics" style="rounded=1;whiteSpace=wrap;html=1;" parent="1" vertex="1">
          <mxGeometry x="500" y="986.86" width="120" height="60" as="geometry" />
        </mxCell>
        <mxCell id="9OvoRHuQcotsG7hngp5x-26" value="max_capacity" style="ellipse;whiteSpace=wrap;html=1;align=center;" parent="1" vertex="1">
          <mxGeometry x="364" y="941.72" width="100" height="40" as="geometry" />
        </mxCell>
        <mxCell id="9OvoRHuQcotsG7hngp5x-32" value="" style="endArrow=none;html=1;rounded=0;exitX=0;exitY=0.5;exitDx=0;exitDy=0;entryX=1;entryY=0.75;entryDx=0;entryDy=0;" parent="1" target="9OvoRHuQcotsG7hngp5x-20" edge="1">
          <mxGeometry width="50" height="50" relative="1" as="geometry">
            <mxPoint x="720" y="856.86" as="sourcePoint" />
            <mxPoint x="640" y="806.86" as="targetPoint" />
          </mxGeometry>
        </mxCell>
        <mxCell id="9OvoRHuQcotsG7hngp5x-33" value="" style="endArrow=none;html=1;rounded=0;exitX=0.5;exitY=0;exitDx=0;exitDy=0;entryX=0.75;entryY=1;entryDx=0;entryDy=0;" parent="1" source="9OvoRHuQcotsG7hngp5x-22" target="9OvoRHuQcotsG7hngp5x-20" edge="1">
          <mxGeometry width="50" height="50" relative="1" as="geometry">
            <mxPoint x="680" y="776.86" as="sourcePoint" />
            <mxPoint x="615" y="816.86" as="targetPoint" />
          </mxGeometry>
        </mxCell>
        <mxCell id="9OvoRHuQcotsG7hngp5x-34" value="" style="endArrow=none;html=1;rounded=0;exitX=0.5;exitY=0;exitDx=0;exitDy=0;entryX=0.5;entryY=1;entryDx=0;entryDy=0;" parent="1" source="9OvoRHuQcotsG7hngp5x-23" target="9OvoRHuQcotsG7hngp5x-20" edge="1">
          <mxGeometry width="50" height="50" relative="1" as="geometry">
            <mxPoint x="690" y="786.86" as="sourcePoint" />
            <mxPoint x="625" y="826.86" as="targetPoint" />
          </mxGeometry>
        </mxCell>
        <mxCell id="9OvoRHuQcotsG7hngp5x-35" value="" style="endArrow=none;html=1;rounded=0;exitX=1;exitY=0.5;exitDx=0;exitDy=0;entryX=0.25;entryY=1;entryDx=0;entryDy=0;" parent="1" source="9OvoRHuQcotsG7hngp5x-26" target="9OvoRHuQcotsG7hngp5x-20" edge="1">
          <mxGeometry width="50" height="50" relative="1" as="geometry">
            <mxPoint x="700" y="796.86" as="sourcePoint" />
            <mxPoint x="530" y="820" as="targetPoint" />
          </mxGeometry>
        </mxCell>
        <mxCell id="9OvoRHuQcotsG7hngp5x-40" value="duration" style="ellipse;whiteSpace=wrap;html=1;align=center;" parent="1" vertex="1">
          <mxGeometry x="700" y="786.86" width="100" height="40" as="geometry" />
        </mxCell>
        <mxCell id="9OvoRHuQcotsG7hngp5x-42" value="" style="endArrow=none;html=1;rounded=0;exitX=1;exitY=0.5;exitDx=0;exitDy=0;entryX=0;entryY=0.5;entryDx=0;entryDy=0;" parent="1" source="9OvoRHuQcotsG7hngp5x-20" target="9OvoRHuQcotsG7hngp5x-40" edge="1">
          <mxGeometry width="50" height="50" relative="1" as="geometry">
            <mxPoint x="680" y="956.86" as="sourcePoint" />
            <mxPoint x="435.35533905932743" y="751.0021356237311" as="targetPoint" />
          </mxGeometry>
        </mxCell>
        <mxCell id="9OvoRHuQcotsG7hngp5x-43" value="has" style="shape=rhombus;perimeter=rhombusPerimeter;whiteSpace=wrap;html=1;align=center;" parent="1" vertex="1">
          <mxGeometry x="500" y="640" width="120" height="60" as="geometry" />
        </mxCell>
        <mxCell id="9OvoRHuQcotsG7hngp5x-51" value="N" style="text;strokeColor=none;align=center;fillColor=none;html=1;verticalAlign=middle;whiteSpace=wrap;rounded=0;" parent="1" vertex="1">
          <mxGeometry x="540" y="761" width="60" height="30" as="geometry" />
        </mxCell>
        <mxCell id="9OvoRHuQcotsG7hngp5x-53" value="booking" style="whiteSpace=wrap;html=1;align=center;" parent="1" vertex="1">
          <mxGeometry x="510" y="520" width="100" height="40" as="geometry" />
        </mxCell>
        <mxCell id="9OvoRHuQcotsG7hngp5x-54" value="booking_id" style="ellipse;whiteSpace=wrap;html=1;align=center;fontStyle=4;" parent="1" vertex="1">
          <mxGeometry x="670" y="500" width="100" height="40" as="geometry" />
        </mxCell>
        <mxCell id="9OvoRHuQcotsG7hngp5x-55" value="status" style="ellipse;whiteSpace=wrap;html=1;align=center;" parent="1" vertex="1">
          <mxGeometry x="670" y="450" width="100" height="40" as="geometry" />
        </mxCell>
        <mxCell id="9OvoRHuQcotsG7hngp5x-60" value="booking_date" style="ellipse;whiteSpace=wrap;html=1;align=center;" parent="1" vertex="1">
          <mxGeometry x="670" y="550" width="100" height="40" as="geometry" />
        </mxCell>
        <mxCell id="9OvoRHuQcotsG7hngp5x-67" value="" style="endArrow=none;html=1;rounded=0;exitX=1;exitY=0.25;exitDx=0;exitDy=0;entryX=0;entryY=0.5;entryDx=0;entryDy=0;" parent="1" source="9OvoRHuQcotsG7hngp5x-53" target="9OvoRHuQcotsG7hngp5x-55" edge="1">
          <mxGeometry width="50" height="50" relative="1" as="geometry">
            <mxPoint x="660" y="590" as="sourcePoint" />
            <mxPoint x="690" y="580" as="targetPoint" />
          </mxGeometry>
        </mxCell>
        <mxCell id="9OvoRHuQcotsG7hngp5x-68" value="" style="endArrow=none;html=1;rounded=0;exitX=1;exitY=0.75;exitDx=0;exitDy=0;entryX=0;entryY=0.5;entryDx=0;entryDy=0;" parent="1" source="9OvoRHuQcotsG7hngp5x-53" target="9OvoRHuQcotsG7hngp5x-60" edge="1">
          <mxGeometry width="50" height="50" relative="1" as="geometry">
            <mxPoint x="670" y="600" as="sourcePoint" />
            <mxPoint x="700" y="590" as="targetPoint" />
          </mxGeometry>
        </mxCell>
        <mxCell id="9OvoRHuQcotsG7hngp5x-69" value="" style="endArrow=none;html=1;rounded=0;entryX=0;entryY=0.5;entryDx=0;entryDy=0;exitX=1;exitY=0.5;exitDx=0;exitDy=0;" parent="1" source="9OvoRHuQcotsG7hngp5x-53" target="9OvoRHuQcotsG7hngp5x-54" edge="1">
          <mxGeometry width="50" height="50" relative="1" as="geometry">
            <mxPoint x="610" y="530" as="sourcePoint" />
            <mxPoint x="710" y="600" as="targetPoint" />
          </mxGeometry>
        </mxCell>
        <mxCell id="9OvoRHuQcotsG7hngp5x-72" value="makes" style="shape=rhombus;perimeter=rhombusPerimeter;whiteSpace=wrap;html=1;align=center;" parent="1" vertex="1">
          <mxGeometry x="500" y="340" width="120" height="60" as="geometry" />
        </mxCell>
        <mxCell id="9OvoRHuQcotsG7hngp5x-74" value="" style="endArrow=none;html=1;rounded=0;entryX=0.5;entryY=1;entryDx=0;entryDy=0;exitX=0.5;exitY=0;exitDx=0;exitDy=0;" parent="1" source="9OvoRHuQcotsG7hngp5x-72" target="9OvoRHuQcotsG7hngp5x-1" edge="1">
          <mxGeometry relative="1" as="geometry">
            <mxPoint x="580" y="330" as="sourcePoint" />
            <mxPoint x="559.58" y="220" as="targetPoint" />
          </mxGeometry>
        </mxCell>
        <mxCell id="9OvoRHuQcotsG7hngp5x-78" value="" style="shape=link;html=1;rounded=0;entryX=0.5;entryY=0;entryDx=0;entryDy=0;exitX=0.5;exitY=1;exitDx=0;exitDy=0;" parent="1" source="9OvoRHuQcotsG7hngp5x-72" target="9OvoRHuQcotsG7hngp5x-53" edge="1">
          <mxGeometry relative="1" as="geometry">
            <mxPoint x="460" y="330" as="sourcePoint" />
            <mxPoint x="620" y="330" as="targetPoint" />
          </mxGeometry>
        </mxCell>
        <mxCell id="9OvoRHuQcotsG7hngp5x-79" value="N" style="resizable=0;html=1;whiteSpace=wrap;align=right;verticalAlign=bottom;" parent="9OvoRHuQcotsG7hngp5x-78" connectable="0" vertex="1">
          <mxGeometry x="1" relative="1" as="geometry">
            <mxPoint x="20" as="offset" />
          </mxGeometry>
        </mxCell>
        <mxCell id="9OvoRHuQcotsG7hngp5x-80" value="" style="resizable=0;html=1;whiteSpace=wrap;align=right;verticalAlign=bottom;direction=south;" parent="1" connectable="0" vertex="1">
          <mxGeometry x="580" y="490" as="geometry">
            <mxPoint x="-7" y="-254" as="offset" />
          </mxGeometry>
        </mxCell>
        <mxCell id="9OvoRHuQcotsG7hngp5x-81" value="" style="endArrow=none;html=1;rounded=0;entryX=0.5;entryY=1;entryDx=0;entryDy=0;exitX=0.5;exitY=0;exitDx=0;exitDy=0;" parent="1" source="9OvoRHuQcotsG7hngp5x-20" target="9OvoRHuQcotsG7hngp5x-43" edge="1">
          <mxGeometry relative="1" as="geometry">
            <mxPoint x="560" y="781" as="sourcePoint" />
            <mxPoint x="580" y="710" as="targetPoint" />
          </mxGeometry>
        </mxCell>
        <mxCell id="9OvoRHuQcotsG7hngp5x-82" value="1" style="text;strokeColor=none;align=center;fillColor=none;html=1;verticalAlign=middle;whiteSpace=wrap;rounded=0;" parent="1" vertex="1">
          <mxGeometry x="540" y="220" width="60" height="30" as="geometry" />
        </mxCell>
        <mxCell id="9OvoRHuQcotsG7hngp5x-85" value="" style="shape=link;html=1;rounded=0;entryX=0.5;entryY=1;entryDx=0;entryDy=0;exitX=0.5;exitY=0;exitDx=0;exitDy=0;" parent="1" source="9OvoRHuQcotsG7hngp5x-43" target="9OvoRHuQcotsG7hngp5x-53" edge="1">
          <mxGeometry relative="1" as="geometry">
            <mxPoint x="460" y="600" as="sourcePoint" />
            <mxPoint x="620" y="600" as="targetPoint" />
          </mxGeometry>
        </mxCell>
        <mxCell id="9OvoRHuQcotsG7hngp5x-86" value="M" style="resizable=0;html=1;whiteSpace=wrap;align=right;verticalAlign=bottom;" parent="9OvoRHuQcotsG7hngp5x-85" connectable="0" vertex="1">
          <mxGeometry x="1" relative="1" as="geometry">
            <mxPoint x="20" y="20" as="offset" />
          </mxGeometry>
        </mxCell>
        <mxCell id="9OvoRHuQcotsG7hngp5x-87" value="pool" style="whiteSpace=wrap;html=1;align=center;" parent="1" vertex="1">
          <mxGeometry x="-230" y="415" width="100" height="40" as="geometry" />
        </mxCell>
        <mxCell id="9OvoRHuQcotsG7hngp5x-88" value="name" style="ellipse;whiteSpace=wrap;html=1;align=center;" parent="1" vertex="1">
          <mxGeometry x="-20" y="469.14" width="100" height="40" as="geometry" />
        </mxCell>
        <mxCell id="9OvoRHuQcotsG7hngp5x-89" value="pool_id" style="ellipse;whiteSpace=wrap;html=1;align=center;fontStyle=4;" parent="1" vertex="1">
          <mxGeometry x="-90" y="525" width="100" height="40" as="geometry" />
        </mxCell>
        <mxCell id="9OvoRHuQcotsG7hngp5x-93" value="total_lanes" style="ellipse;whiteSpace=wrap;html=1;align=center;" parent="1" vertex="1">
          <mxGeometry x="-370" y="525" width="100" height="40" as="geometry" />
        </mxCell>
        <mxCell id="9OvoRHuQcotsG7hngp5x-94" value="opening_time" style="ellipse;whiteSpace=wrap;html=1;align=center;" parent="1" vertex="1">
          <mxGeometry x="-440" y="465" width="100" height="40" as="geometry" />
        </mxCell>
        <mxCell id="9OvoRHuQcotsG7hngp5x-95" value="closing_time" style="ellipse;whiteSpace=wrap;html=1;align=center;" parent="1" vertex="1">
          <mxGeometry x="-390" y="415" width="100" height="40" as="geometry" />
        </mxCell>
        <mxCell id="9OvoRHuQcotsG7hngp5x-96" value="location" style="ellipse;whiteSpace=wrap;html=1;align=center;" parent="1" vertex="1">
          <mxGeometry x="-70" y="415" width="100" height="40" as="geometry" />
        </mxCell>
        <mxCell id="9OvoRHuQcotsG7hngp5x-97" value="" style="endArrow=none;html=1;rounded=0;exitX=0;exitY=0.5;exitDx=0;exitDy=0;entryX=1;entryY=0.5;entryDx=0;entryDy=0;" parent="1" source="9OvoRHuQcotsG7hngp5x-96" target="9OvoRHuQcotsG7hngp5x-87" edge="1">
          <mxGeometry width="50" height="50" relative="1" as="geometry">
            <mxPoint x="40" y="405" as="sourcePoint" />
            <mxPoint x="90" y="355" as="targetPoint" />
          </mxGeometry>
        </mxCell>
        <mxCell id="9OvoRHuQcotsG7hngp5x-98" value="" style="endArrow=none;html=1;rounded=0;exitX=1;exitY=0.5;exitDx=0;exitDy=0;entryX=0;entryY=0.5;entryDx=0;entryDy=0;" parent="1" source="9OvoRHuQcotsG7hngp5x-95" target="9OvoRHuQcotsG7hngp5x-87" edge="1">
          <mxGeometry width="50" height="50" relative="1" as="geometry">
            <mxPoint x="-80" y="385" as="sourcePoint" />
            <mxPoint x="-145" y="425" as="targetPoint" />
          </mxGeometry>
        </mxCell>
        <mxCell id="9OvoRHuQcotsG7hngp5x-99" value="" style="endArrow=none;html=1;rounded=0;exitX=0;exitY=0.5;exitDx=0;exitDy=0;entryX=1;entryY=0.75;entryDx=0;entryDy=0;" parent="1" target="9OvoRHuQcotsG7hngp5x-87" edge="1">
          <mxGeometry width="50" height="50" relative="1" as="geometry">
            <mxPoint x="-20" y="485" as="sourcePoint" />
            <mxPoint x="-100" y="435" as="targetPoint" />
          </mxGeometry>
        </mxCell>
        <mxCell id="9OvoRHuQcotsG7hngp5x-100" value="" style="endArrow=none;html=1;rounded=0;exitX=0.5;exitY=0;exitDx=0;exitDy=0;entryX=0.75;entryY=1;entryDx=0;entryDy=0;" parent="1" source="9OvoRHuQcotsG7hngp5x-89" target="9OvoRHuQcotsG7hngp5x-87" edge="1">
          <mxGeometry width="50" height="50" relative="1" as="geometry">
            <mxPoint x="-60" y="405" as="sourcePoint" />
            <mxPoint x="-125" y="445" as="targetPoint" />
          </mxGeometry>
        </mxCell>
        <mxCell id="9OvoRHuQcotsG7hngp5x-102" value="" style="endArrow=none;html=1;rounded=0;exitX=0.5;exitY=0;exitDx=0;exitDy=0;entryX=0.25;entryY=1;entryDx=0;entryDy=0;" parent="1" source="9OvoRHuQcotsG7hngp5x-93" target="9OvoRHuQcotsG7hngp5x-87" edge="1">
          <mxGeometry width="50" height="50" relative="1" as="geometry">
            <mxPoint x="-40" y="425" as="sourcePoint" />
            <mxPoint x="-105" y="465" as="targetPoint" />
          </mxGeometry>
        </mxCell>
        <mxCell id="9OvoRHuQcotsG7hngp5x-103" value="" style="endArrow=none;html=1;rounded=0;exitX=1;exitY=0.5;exitDx=0;exitDy=0;entryX=0;entryY=0.75;entryDx=0;entryDy=0;" parent="1" source="9OvoRHuQcotsG7hngp5x-94" target="9OvoRHuQcotsG7hngp5x-87" edge="1">
          <mxGeometry width="50" height="50" relative="1" as="geometry">
            <mxPoint x="-30" y="435" as="sourcePoint" />
            <mxPoint x="-230" y="455" as="targetPoint" />
          </mxGeometry>
        </mxCell>
        <mxCell id="9OvoRHuQcotsG7hngp5x-115" value="" style="endArrow=none;html=1;rounded=0;entryX=0;entryY=0.5;entryDx=0;entryDy=0;exitX=1;exitY=0.5;exitDx=0;exitDy=0;" parent="1" source="9OvoRHuQcotsG7hngp5x-237" target="9OvoRHuQcotsG7hngp5x-136" edge="1">
          <mxGeometry width="50" height="50" relative="1" as="geometry">
            <mxPoint x="-290" y="806.8600000000001" as="sourcePoint" />
            <mxPoint x="-229.99999999999977" y="806.8600000000001" as="targetPoint" />
          </mxGeometry>
        </mxCell>
        <mxCell id="9OvoRHuQcotsG7hngp5x-122" value="status" style="ellipse;whiteSpace=wrap;html=1;align=center;" parent="1" vertex="1">
          <mxGeometry x="-230" y="901.72" width="100" height="40" as="geometry" />
        </mxCell>
        <mxCell id="9OvoRHuQcotsG7hngp5x-123" value="" style="endArrow=none;dashed=1;html=1;rounded=0;exitX=0.5;exitY=1;exitDx=0;exitDy=0;entryX=0.5;entryY=0;entryDx=0;entryDy=0;" parent="1" source="9OvoRHuQcotsG7hngp5x-122" target="9OvoRHuQcotsG7hngp5x-124" edge="1">
          <mxGeometry width="50" height="50" relative="1" as="geometry">
            <mxPoint x="40" y="676.72" as="sourcePoint" />
            <mxPoint x="-50" y="906.72" as="targetPoint" />
          </mxGeometry>
        </mxCell>
        <mxCell id="9OvoRHuQcotsG7hngp5x-124" value="Free, Full, Under maintenance&amp;nbsp;" style="rounded=1;whiteSpace=wrap;html=1;" parent="1" vertex="1">
          <mxGeometry x="-240" y="986.72" width="120" height="60" as="geometry" />
        </mxCell>
        <mxCell id="9OvoRHuQcotsG7hngp5x-125" value="" style="endArrow=none;html=1;rounded=0;exitX=0.5;exitY=0;exitDx=0;exitDy=0;entryX=0.5;entryY=1;entryDx=0;entryDy=0;" parent="1" source="9OvoRHuQcotsG7hngp5x-122" target="9OvoRHuQcotsG7hngp5x-136" edge="1">
          <mxGeometry width="50" height="50" relative="1" as="geometry">
            <mxPoint x="-50" y="786.72" as="sourcePoint" />
            <mxPoint x="-180" y="826.86" as="targetPoint" />
          </mxGeometry>
        </mxCell>
        <mxCell id="9OvoRHuQcotsG7hngp5x-127" value="occurs" style="shape=rhombus;perimeter=rhombusPerimeter;whiteSpace=wrap;html=1;align=center;" parent="1" vertex="1">
          <mxGeometry x="130" y="776.86" width="120" height="60" as="geometry" />
        </mxCell>
        <mxCell id="9OvoRHuQcotsG7hngp5x-128" value="" style="shape=link;html=1;rounded=0;entryX=0;entryY=0.5;entryDx=0;entryDy=0;exitX=1;exitY=0.5;exitDx=0;exitDy=0;" parent="1" source="9OvoRHuQcotsG7hngp5x-127" target="9OvoRHuQcotsG7hngp5x-20" edge="1">
          <mxGeometry relative="1" as="geometry">
            <mxPoint x="280" y="806.44" as="sourcePoint" />
            <mxPoint x="440" y="806.44" as="targetPoint" />
          </mxGeometry>
        </mxCell>
        <mxCell id="9OvoRHuQcotsG7hngp5x-129" value="N" style="resizable=0;html=1;whiteSpace=wrap;align=right;verticalAlign=bottom;" parent="9OvoRHuQcotsG7hngp5x-128" connectable="0" vertex="1">
          <mxGeometry x="1" relative="1" as="geometry">
            <mxPoint x="-10" as="offset" />
          </mxGeometry>
        </mxCell>
        <mxCell id="9OvoRHuQcotsG7hngp5x-133" value="" style="shape=link;html=1;rounded=0;exitX=0;exitY=0.5;exitDx=0;exitDy=0;entryX=1;entryY=0.5;entryDx=0;entryDy=0;" parent="1" source="9OvoRHuQcotsG7hngp5x-127" target="9OvoRHuQcotsG7hngp5x-136" edge="1">
          <mxGeometry relative="1" as="geometry">
            <mxPoint x="130" y="760" as="sourcePoint" />
            <mxPoint x="-130" y="807" as="targetPoint" />
          </mxGeometry>
        </mxCell>
        <mxCell id="9OvoRHuQcotsG7hngp5x-134" value="1" style="resizable=0;html=1;whiteSpace=wrap;align=right;verticalAlign=bottom;" parent="9OvoRHuQcotsG7hngp5x-133" connectable="0" vertex="1">
          <mxGeometry x="1" relative="1" as="geometry">
            <mxPoint x="20" as="offset" />
          </mxGeometry>
        </mxCell>
        <mxCell id="9OvoRHuQcotsG7hngp5x-135" value="contains" style="shape=rhombus;perimeter=rhombusPerimeter;whiteSpace=wrap;html=1;align=center;" parent="1" vertex="1">
          <mxGeometry x="-240" y="590" width="120" height="60" as="geometry" />
        </mxCell>
        <mxCell id="9OvoRHuQcotsG7hngp5x-136" value="lane" style="shape=ext;margin=3;double=1;whiteSpace=wrap;html=1;align=center;" parent="1" vertex="1">
          <mxGeometry x="-230" y="786.86" width="100" height="40" as="geometry" />
        </mxCell>
        <mxCell id="9OvoRHuQcotsG7hngp5x-139" value="" style="shape=link;html=1;rounded=0;entryX=0.5;entryY=0;entryDx=0;entryDy=0;exitX=0.5;exitY=1;exitDx=0;exitDy=0;" parent="1" source="9OvoRHuQcotsG7hngp5x-135" target="9OvoRHuQcotsG7hngp5x-136" edge="1">
          <mxGeometry relative="1" as="geometry">
            <mxPoint x="-180" y="660" as="sourcePoint" />
            <mxPoint x="-20" y="660" as="targetPoint" />
          </mxGeometry>
        </mxCell>
        <mxCell id="9OvoRHuQcotsG7hngp5x-140" value="N" style="resizable=0;html=1;whiteSpace=wrap;align=right;verticalAlign=bottom;" parent="9OvoRHuQcotsG7hngp5x-139" connectable="0" vertex="1">
          <mxGeometry x="1" relative="1" as="geometry">
            <mxPoint x="20" as="offset" />
          </mxGeometry>
        </mxCell>
        <mxCell id="9OvoRHuQcotsG7hngp5x-143" value="" style="shape=link;html=1;rounded=0;exitX=0.5;exitY=0;exitDx=0;exitDy=0;entryX=0.5;entryY=1;entryDx=0;entryDy=0;" parent="1" source="9OvoRHuQcotsG7hngp5x-135" target="9OvoRHuQcotsG7hngp5x-87" edge="1">
          <mxGeometry relative="1" as="geometry">
            <mxPoint x="-180" y="660" as="sourcePoint" />
            <mxPoint x="-20" y="660" as="targetPoint" />
          </mxGeometry>
        </mxCell>
        <mxCell id="9OvoRHuQcotsG7hngp5x-144" value="1" style="resizable=0;html=1;whiteSpace=wrap;align=right;verticalAlign=bottom;" parent="9OvoRHuQcotsG7hngp5x-143" connectable="0" vertex="1">
          <mxGeometry x="1" relative="1" as="geometry">
            <mxPoint x="20" y="15" as="offset" />
          </mxGeometry>
        </mxCell>
        <mxCell id="9OvoRHuQcotsG7hngp5x-163" value="instructor" style="whiteSpace=wrap;html=1;align=center;" parent="1" vertex="1">
          <mxGeometry x="10" y="110" width="100" height="40" as="geometry" />
        </mxCell>
        <mxCell id="9OvoRHuQcotsG7hngp5x-164" value="instructor_id" style="ellipse;whiteSpace=wrap;html=1;align=center;fontStyle=4;" parent="1" vertex="1">
          <mxGeometry x="-40" y="190" width="100" height="40" as="geometry" />
        </mxCell>
        <mxCell id="9OvoRHuQcotsG7hngp5x-171" value="specialization" style="ellipse;whiteSpace=wrap;html=1;align=center;" parent="1" vertex="1">
          <mxGeometry x="120" y="190" width="100" height="40" as="geometry" />
        </mxCell>
        <mxCell id="9OvoRHuQcotsG7hngp5x-176" value="" style="endArrow=none;html=1;rounded=0;exitX=0.75;exitY=1;exitDx=0;exitDy=0;entryX=0;entryY=0;entryDx=0;entryDy=0;" parent="1" source="9OvoRHuQcotsG7hngp5x-163" target="9OvoRHuQcotsG7hngp5x-171" edge="1">
          <mxGeometry width="50" height="50" relative="1" as="geometry">
            <mxPoint x="60" y="150" as="sourcePoint" />
            <mxPoint x="210" y="230" as="targetPoint" />
          </mxGeometry>
        </mxCell>
        <mxCell id="9OvoRHuQcotsG7hngp5x-179" value="" style="endArrow=none;html=1;rounded=0;entryX=0.5;entryY=0;entryDx=0;entryDy=0;exitX=0.25;exitY=1;exitDx=0;exitDy=0;" parent="1" source="9OvoRHuQcotsG7hngp5x-163" target="9OvoRHuQcotsG7hngp5x-164" edge="1">
          <mxGeometry width="50" height="50" relative="1" as="geometry">
            <mxPoint x="10" y="145" as="sourcePoint" />
            <mxPoint x="210" y="190" as="targetPoint" />
          </mxGeometry>
        </mxCell>
        <mxCell id="9OvoRHuQcotsG7hngp5x-181" value="conducts" style="shape=rhombus;perimeter=rhombusPerimeter;whiteSpace=wrap;html=1;align=center;" parent="1" vertex="1">
          <mxGeometry x="170" y="520" width="120" height="60" as="geometry" />
        </mxCell>
        <mxCell id="9OvoRHuQcotsG7hngp5x-182" value="" style="shape=link;html=1;rounded=0;entryX=0.021;entryY=0.116;entryDx=0;entryDy=0;exitX=1;exitY=1;exitDx=0;exitDy=0;entryPerimeter=0;" parent="1" source="9OvoRHuQcotsG7hngp5x-181" target="9OvoRHuQcotsG7hngp5x-20" edge="1">
          <mxGeometry relative="1" as="geometry">
            <mxPoint x="140" y="1040" as="sourcePoint" />
            <mxPoint x="300" y="1040" as="targetPoint" />
          </mxGeometry>
        </mxCell>
        <mxCell id="9OvoRHuQcotsG7hngp5x-183" value="N" style="resizable=0;html=1;whiteSpace=wrap;align=right;verticalAlign=bottom;" parent="9OvoRHuQcotsG7hngp5x-182" connectable="0" vertex="1">
          <mxGeometry x="1" relative="1" as="geometry">
            <mxPoint x="8" y="-5" as="offset" />
          </mxGeometry>
        </mxCell>
        <mxCell id="9OvoRHuQcotsG7hngp5x-188" value="lifeguard" style="whiteSpace=wrap;html=1;align=center;" parent="1" vertex="1">
          <mxGeometry x="-590" y="105" width="100" height="40" as="geometry" />
        </mxCell>
        <mxCell id="9OvoRHuQcotsG7hngp5x-189" value="lifeguard_id" style="ellipse;whiteSpace=wrap;html=1;align=center;fontStyle=4;" parent="1" vertex="1">
          <mxGeometry x="-690" y="40" width="100" height="40" as="geometry" />
        </mxCell>
        <mxCell id="9OvoRHuQcotsG7hngp5x-202" value="" style="endArrow=none;html=1;rounded=0;entryX=0.5;entryY=1;entryDx=0;entryDy=0;exitX=0;exitY=0.5;exitDx=0;exitDy=0;" parent="1" source="9OvoRHuQcotsG7hngp5x-188" target="9OvoRHuQcotsG7hngp5x-189" edge="1">
          <mxGeometry width="50" height="50" relative="1" as="geometry">
            <mxPoint x="-610" y="140" as="sourcePoint" />
            <mxPoint x="-390" y="185" as="targetPoint" />
          </mxGeometry>
        </mxCell>
        <mxCell id="9OvoRHuQcotsG7hngp5x-204" value="monitors" style="shape=rhombus;perimeter=rhombusPerimeter;whiteSpace=wrap;html=1;align=center;" parent="1" vertex="1">
          <mxGeometry x="-400" y="270" width="120" height="60" as="geometry" />
        </mxCell>
        <mxCell id="9OvoRHuQcotsG7hngp5x-208" value="" style="shape=link;html=1;rounded=0;entryX=0.5;entryY=0;entryDx=0;entryDy=0;exitX=1;exitY=1;exitDx=0;exitDy=0;" parent="1" source="9OvoRHuQcotsG7hngp5x-204" target="9OvoRHuQcotsG7hngp5x-87" edge="1">
          <mxGeometry relative="1" as="geometry">
            <mxPoint x="-220" y="310" as="sourcePoint" />
            <mxPoint x="-180" y="400" as="targetPoint" />
          </mxGeometry>
        </mxCell>
        <mxCell id="9OvoRHuQcotsG7hngp5x-209" value="N" style="resizable=0;html=1;whiteSpace=wrap;align=right;verticalAlign=bottom;" parent="9OvoRHuQcotsG7hngp5x-208" connectable="0" vertex="1">
          <mxGeometry x="1" relative="1" as="geometry">
            <mxPoint x="10" y="-5" as="offset" />
          </mxGeometry>
        </mxCell>
        <mxCell id="9OvoRHuQcotsG7hngp5x-210" value="" style="shape=link;html=1;rounded=0;entryX=0.5;entryY=1;entryDx=0;entryDy=0;exitX=0;exitY=0;exitDx=0;exitDy=0;" parent="1" source="9OvoRHuQcotsG7hngp5x-204" target="9OvoRHuQcotsG7hngp5x-188" edge="1">
          <mxGeometry relative="1" as="geometry">
            <mxPoint x="-530" y="215" as="sourcePoint" />
            <mxPoint x="-400" y="315" as="targetPoint" />
          </mxGeometry>
        </mxCell>
        <mxCell id="9OvoRHuQcotsG7hngp5x-211" value="M" style="resizable=0;html=1;whiteSpace=wrap;align=right;verticalAlign=bottom;" parent="9OvoRHuQcotsG7hngp5x-210" connectable="0" vertex="1">
          <mxGeometry x="1" relative="1" as="geometry">
            <mxPoint y="20" as="offset" />
          </mxGeometry>
        </mxCell>
        <mxCell id="9OvoRHuQcotsG7hngp5x-212" value="person" style="whiteSpace=wrap;html=1;align=center;" parent="1" vertex="1">
          <mxGeometry x="8" y="-140" width="100" height="40" as="geometry" />
        </mxCell>
        <mxCell id="9OvoRHuQcotsG7hngp5x-213" value="cc" style="ellipse;whiteSpace=wrap;html=1;align=center;fontStyle=4;" parent="1" vertex="1">
          <mxGeometry x="-182" y="-200" width="100" height="40" as="geometry" />
        </mxCell>
        <mxCell id="9OvoRHuQcotsG7hngp5x-214" value="name" style="ellipse;whiteSpace=wrap;html=1;align=center;" parent="1" vertex="1">
          <mxGeometry x="-92" y="-240" width="100" height="40" as="geometry" />
        </mxCell>
        <mxCell id="9OvoRHuQcotsG7hngp5x-215" value="email" style="ellipse;whiteSpace=wrap;html=1;align=center;" parent="1" vertex="1">
          <mxGeometry x="8" y="-280" width="100" height="40" as="geometry" />
        </mxCell>
        <mxCell id="9OvoRHuQcotsG7hngp5x-216" value="phone" style="ellipse;whiteSpace=wrap;html=1;align=center;" parent="1" vertex="1">
          <mxGeometry x="130" y="-240" width="100" height="40" as="geometry" />
        </mxCell>
        <mxCell id="9OvoRHuQcotsG7hngp5x-217" value="date_of_birth" style="ellipse;whiteSpace=wrap;html=1;align=center;" parent="1" vertex="1">
          <mxGeometry x="214" y="-200" width="100" height="40" as="geometry" />
        </mxCell>
        <mxCell id="9OvoRHuQcotsG7hngp5x-218" value="age" style="ellipse;whiteSpace=wrap;html=1;align=center;dashed=1;" parent="1" vertex="1">
          <mxGeometry x="220" y="-150" width="100" height="40" as="geometry" />
        </mxCell>
        <mxCell id="9OvoRHuQcotsG7hngp5x-221" value="" style="endArrow=none;html=1;rounded=0;exitX=0.75;exitY=0;exitDx=0;exitDy=0;entryX=0.5;entryY=1;entryDx=0;entryDy=0;" parent="1" source="9OvoRHuQcotsG7hngp5x-212" target="9OvoRHuQcotsG7hngp5x-216" edge="1">
          <mxGeometry width="50" height="50" relative="1" as="geometry">
            <mxPoint x="128" y="-100" as="sourcePoint" />
            <mxPoint x="178" y="-150" as="targetPoint" />
          </mxGeometry>
        </mxCell>
        <mxCell id="9OvoRHuQcotsG7hngp5x-222" value="" style="endArrow=none;html=1;rounded=0;exitX=1;exitY=0.25;exitDx=0;exitDy=0;entryX=0;entryY=0.5;entryDx=0;entryDy=0;" parent="1" source="9OvoRHuQcotsG7hngp5x-212" target="9OvoRHuQcotsG7hngp5x-217" edge="1">
          <mxGeometry width="50" height="50" relative="1" as="geometry">
            <mxPoint x="118" y="-110" as="sourcePoint" />
            <mxPoint x="148" y="-120" as="targetPoint" />
          </mxGeometry>
        </mxCell>
        <mxCell id="9OvoRHuQcotsG7hngp5x-223" value="" style="endArrow=none;html=1;rounded=0;exitX=1;exitY=0.75;exitDx=0;exitDy=0;entryX=0;entryY=0.5;entryDx=0;entryDy=0;" parent="1" source="9OvoRHuQcotsG7hngp5x-212" target="9OvoRHuQcotsG7hngp5x-218" edge="1">
          <mxGeometry width="50" height="50" relative="1" as="geometry">
            <mxPoint x="128" y="-100" as="sourcePoint" />
            <mxPoint x="158" y="-110" as="targetPoint" />
          </mxGeometry>
        </mxCell>
        <mxCell id="9OvoRHuQcotsG7hngp5x-224" value="" style="endArrow=none;html=1;rounded=0;exitX=0.5;exitY=0;exitDx=0;exitDy=0;entryX=0.5;entryY=1;entryDx=0;entryDy=0;" parent="1" source="9OvoRHuQcotsG7hngp5x-212" target="9OvoRHuQcotsG7hngp5x-215" edge="1">
          <mxGeometry width="50" height="50" relative="1" as="geometry">
            <mxPoint x="138" y="-90" as="sourcePoint" />
            <mxPoint x="168" y="-100" as="targetPoint" />
          </mxGeometry>
        </mxCell>
        <mxCell id="9OvoRHuQcotsG7hngp5x-226" value="" style="endArrow=none;html=1;rounded=0;exitX=0.25;exitY=0;exitDx=0;exitDy=0;entryX=0.5;entryY=1;entryDx=0;entryDy=0;" parent="1" source="9OvoRHuQcotsG7hngp5x-212" target="9OvoRHuQcotsG7hngp5x-214" edge="1">
          <mxGeometry width="50" height="50" relative="1" as="geometry">
            <mxPoint x="158" y="-70" as="sourcePoint" />
            <mxPoint x="188" y="-80" as="targetPoint" />
          </mxGeometry>
        </mxCell>
        <mxCell id="9OvoRHuQcotsG7hngp5x-228" value="" style="endArrow=none;html=1;rounded=0;entryX=1;entryY=0.5;entryDx=0;entryDy=0;exitX=0;exitY=0.25;exitDx=0;exitDy=0;" parent="1" source="9OvoRHuQcotsG7hngp5x-212" target="9OvoRHuQcotsG7hngp5x-213" edge="1">
          <mxGeometry width="50" height="50" relative="1" as="geometry">
            <mxPoint x="8" y="-105" as="sourcePoint" />
            <mxPoint x="208" y="-60" as="targetPoint" />
          </mxGeometry>
        </mxCell>
        <mxCell id="9OvoRHuQcotsG7hngp5x-232" value="is-a" style="triangle;whiteSpace=wrap;html=1;rotation=-90;" parent="1" vertex="1">
          <mxGeometry x="37.5" y="-40" width="41" height="51" as="geometry" />
        </mxCell>
        <mxCell id="9OvoRHuQcotsG7hngp5x-233" value="" style="endArrow=none;html=1;rounded=0;exitX=0;exitY=0.5;exitDx=0;exitDy=0;entryX=0.5;entryY=0;entryDx=0;entryDy=0;" parent="1" source="9OvoRHuQcotsG7hngp5x-232" target="9OvoRHuQcotsG7hngp5x-163" edge="1">
          <mxGeometry width="50" height="50" relative="1" as="geometry">
            <mxPoint x="95" y="160" as="sourcePoint" />
            <mxPoint x="145" y="206" as="targetPoint" />
          </mxGeometry>
        </mxCell>
        <mxCell id="9OvoRHuQcotsG7hngp5x-234" value="" style="endArrow=none;html=1;rounded=0;exitX=0;exitY=0.25;exitDx=0;exitDy=0;entryX=0.5;entryY=0;entryDx=0;entryDy=0;" parent="1" source="9OvoRHuQcotsG7hngp5x-232" target="9OvoRHuQcotsG7hngp5x-188" edge="1">
          <mxGeometry width="50" height="50" relative="1" as="geometry">
            <mxPoint x="68" y="16" as="sourcePoint" />
            <mxPoint x="70" y="120" as="targetPoint" />
            <Array as="points">
              <mxPoint x="45" y="40" />
              <mxPoint x="-540" y="40" />
            </Array>
          </mxGeometry>
        </mxCell>
        <mxCell id="9OvoRHuQcotsG7hngp5x-235" value="" style="endArrow=none;html=1;rounded=0;exitX=0;exitY=0.75;exitDx=0;exitDy=0;entryX=0.5;entryY=0;entryDx=0;entryDy=0;" parent="1" source="9OvoRHuQcotsG7hngp5x-232" target="9OvoRHuQcotsG7hngp5x-1" edge="1">
          <mxGeometry width="50" height="50" relative="1" as="geometry">
            <mxPoint x="55" y="16" as="sourcePoint" />
            <mxPoint x="-530" y="115" as="targetPoint" />
            <Array as="points">
              <mxPoint x="71" y="40" />
              <mxPoint x="560" y="40" />
            </Array>
          </mxGeometry>
        </mxCell>
        <mxCell id="9OvoRHuQcotsG7hngp5x-236" value="" style="endArrow=none;html=1;rounded=0;exitX=0.5;exitY=1;exitDx=0;exitDy=0;entryX=1;entryY=0.5;entryDx=0;entryDy=0;" parent="1" source="9OvoRHuQcotsG7hngp5x-212" target="9OvoRHuQcotsG7hngp5x-232" edge="1">
          <mxGeometry width="50" height="50" relative="1" as="geometry">
            <mxPoint x="68" y="16" as="sourcePoint" />
            <mxPoint x="70" y="120" as="targetPoint" />
          </mxGeometry>
        </mxCell>
        <mxCell id="9OvoRHuQcotsG7hngp5x-237" value="&lt;span style=&quot;border-bottom: 1px dotted;&quot;&gt;lane_number&lt;/span&gt;" style="ellipse;whiteSpace=wrap;html=1;align=center;" parent="1" vertex="1">
          <mxGeometry x="-390" y="786.86" width="100" height="40" as="geometry" />
        </mxCell>
        <mxCell id="9OvoRHuQcotsG7hngp5x-238" value="address" style="ellipse;whiteSpace=wrap;html=1;align=center;" parent="1" vertex="1">
          <mxGeometry x="-182" y="-140" width="100" height="40" as="geometry" />
        </mxCell>
        <mxCell id="9OvoRHuQcotsG7hngp5x-239" value="" style="endArrow=none;html=1;rounded=0;exitX=0;exitY=0.5;exitDx=0;exitDy=0;entryX=1;entryY=0.5;entryDx=0;entryDy=0;" parent="1" source="9OvoRHuQcotsG7hngp5x-212" target="9OvoRHuQcotsG7hngp5x-238" edge="1">
          <mxGeometry width="50" height="50" relative="1" as="geometry">
            <mxPoint x="43" y="-130" as="sourcePoint" />
            <mxPoint x="-32" y="-190" as="targetPoint" />
          </mxGeometry>
        </mxCell>
        <mxCell id="9OvoRHuQcotsG7hngp5x-240" value="" style="endArrow=none;dashed=1;html=1;rounded=0;exitX=1;exitY=0.5;exitDx=0;exitDy=0;entryX=0;entryY=0.5;entryDx=0;entryDy=0;" parent="1" source="9OvoRHuQcotsG7hngp5x-55" target="9OvoRHuQcotsG7hngp5x-241" edge="1">
          <mxGeometry width="50" height="50" relative="1" as="geometry">
            <mxPoint x="880" y="400" as="sourcePoint" />
            <mxPoint x="1010" y="364.72" as="targetPoint" />
          </mxGeometry>
        </mxCell>
        <mxCell id="9OvoRHuQcotsG7hngp5x-241" value="Confirmed, Canceled, Completed" style="rounded=1;whiteSpace=wrap;html=1;" parent="1" vertex="1">
          <mxGeometry x="827" y="440" width="120" height="60" as="geometry" />
        </mxCell>
        <mxCell id="EWs-YBw95FuOeDIeLJRj-2" value="Performs" style="shape=rhombus;perimeter=rhombusPerimeter;whiteSpace=wrap;html=1;align=center;" parent="1" vertex="1">
          <mxGeometry x="300" y="170" width="120" height="60" as="geometry" />
        </mxCell>
        <mxCell id="EWs-YBw95FuOeDIeLJRj-3" value="" style="endArrow=none;html=1;rounded=0;entryX=0;entryY=0.5;entryDx=0;entryDy=0;exitX=1;exitY=0.5;exitDx=0;exitDy=0;" parent="1" source="EWs-YBw95FuOeDIeLJRj-2" target="9OvoRHuQcotsG7hngp5x-1" edge="1">
          <mxGeometry relative="1" as="geometry">
            <mxPoint x="464" y="250" as="sourcePoint" />
            <mxPoint x="464" y="130" as="targetPoint" />
          </mxGeometry>
        </mxCell>
        <mxCell id="EWs-YBw95FuOeDIeLJRj-4" value="1" style="text;strokeColor=none;align=center;fillColor=none;html=1;verticalAlign=middle;whiteSpace=wrap;rounded=0;" parent="1" vertex="1">
          <mxGeometry x="464" y="170" width="60" height="30" as="geometry" />
        </mxCell>
        <mxCell id="EWs-YBw95FuOeDIeLJRj-5" value="" style="shape=link;html=1;rounded=0;exitX=0.5;exitY=1;exitDx=0;exitDy=0;entryX=0.5;entryY=0;entryDx=0;entryDy=0;" parent="1" source="EWs-YBw95FuOeDIeLJRj-2" target="EWs-YBw95FuOeDIeLJRj-7" edge="1">
          <mxGeometry relative="1" as="geometry">
            <mxPoint x="359.5" y="230" as="sourcePoint" />
            <mxPoint x="360" y="280" as="targetPoint" />
          </mxGeometry>
        </mxCell>
        <mxCell id="EWs-YBw95FuOeDIeLJRj-6" value="N" style="resizable=0;html=1;whiteSpace=wrap;align=right;verticalAlign=bottom;" parent="EWs-YBw95FuOeDIeLJRj-5" connectable="0" vertex="1">
          <mxGeometry x="1" relative="1" as="geometry">
            <mxPoint x="20" y="-30" as="offset" />
          </mxGeometry>
        </mxCell>
        <mxCell id="EWs-YBw95FuOeDIeLJRj-7" value="Payment" style="rounded=0;whiteSpace=wrap;html=1;" parent="1" vertex="1">
          <mxGeometry x="300" y="280" width="120" height="40" as="geometry" />
        </mxCell>
        <mxCell id="EWs-YBw95FuOeDIeLJRj-9" value="payment_id" style="ellipse;whiteSpace=wrap;html=1;align=center;fontStyle=4;" parent="1" vertex="1">
          <mxGeometry x="160" y="270" width="100" height="40" as="geometry" />
        </mxCell>
        <mxCell id="EWs-YBw95FuOeDIeLJRj-10" value="" style="endArrow=none;html=1;rounded=0;entryX=0;entryY=0.5;entryDx=0;entryDy=0;exitX=1;exitY=0.5;exitDx=0;exitDy=0;" parent="1" source="EWs-YBw95FuOeDIeLJRj-9" target="EWs-YBw95FuOeDIeLJRj-7" edge="1">
          <mxGeometry width="50" height="50" relative="1" as="geometry">
            <mxPoint x="200" y="340" as="sourcePoint" />
            <mxPoint x="275" y="310" as="targetPoint" />
          </mxGeometry>
        </mxCell>
        <mxCell id="EWs-YBw95FuOeDIeLJRj-12" value="cost" style="ellipse;whiteSpace=wrap;html=1;align=center;" parent="1" vertex="1">
          <mxGeometry x="214" y="370" width="100" height="40" as="geometry" />
        </mxCell>
        <mxCell id="EWs-YBw95FuOeDIeLJRj-13" value="" style="endArrow=none;html=1;rounded=0;entryX=0.25;entryY=1;entryDx=0;entryDy=0;exitX=1;exitY=0;exitDx=0;exitDy=0;" parent="1" source="EWs-YBw95FuOeDIeLJRj-12" target="EWs-YBw95FuOeDIeLJRj-7" edge="1">
          <mxGeometry width="50" height="50" relative="1" as="geometry">
            <mxPoint x="320" y="380" as="sourcePoint" />
            <mxPoint x="320" y="320" as="targetPoint" />
          </mxGeometry>
        </mxCell>
        <mxCell id="EWs-YBw95FuOeDIeLJRj-14" value="nif" style="ellipse;whiteSpace=wrap;html=1;align=center;" parent="1" vertex="1">
          <mxGeometry x="660" y="65" width="100" height="40" as="geometry" />
        </mxCell>
        <mxCell id="EWs-YBw95FuOeDIeLJRj-15" value="" style="endArrow=none;html=1;rounded=0;entryX=0;entryY=0.5;entryDx=0;entryDy=0;exitX=0.63;exitY=-0.05;exitDx=0;exitDy=0;exitPerimeter=0;" parent="1" source="9OvoRHuQcotsG7hngp5x-1" target="EWs-YBw95FuOeDIeLJRj-14" edge="1">
          <mxGeometry width="50" height="50" relative="1" as="geometry">
            <mxPoint x="585" y="110" as="sourcePoint" />
            <mxPoint x="660" y="80" as="targetPoint" />
          </mxGeometry>
        </mxCell>
        <mxCell id="Ih_CoEJuA9EiDlVNxRPU-6" value="" style="endArrow=none;html=1;rounded=0;exitX=1;exitY=0;exitDx=0;exitDy=0;entryX=0;entryY=0.5;entryDx=0;entryDy=0;" parent="1" source="9OvoRHuQcotsG7hngp5x-82" target="Ih_CoEJuA9EiDlVNxRPU-4" edge="1">
          <mxGeometry width="50" height="50" relative="1" as="geometry">
            <mxPoint x="610" y="265.5" as="sourcePoint" />
            <mxPoint x="670" y="265.5" as="targetPoint" />
          </mxGeometry>
        </mxCell>
        <mxCell id="QD-x2f186SNQjpPGLKSW-2" value="" style="endArrow=none;html=1;rounded=0;entryX=0.5;entryY=1;entryDx=0;entryDy=0;exitX=0;exitY=0;exitDx=0;exitDy=0;" edge="1" parent="1" source="9OvoRHuQcotsG7hngp5x-181" target="9OvoRHuQcotsG7hngp5x-163">
          <mxGeometry relative="1" as="geometry">
            <mxPoint x="10" y="360" as="sourcePoint" />
            <mxPoint x="170" y="360" as="targetPoint" />
          </mxGeometry>
        </mxCell>
        <mxCell id="QD-x2f186SNQjpPGLKSW-3" value="1" style="resizable=0;html=1;whiteSpace=wrap;align=right;verticalAlign=bottom;" connectable="0" vertex="1" parent="QD-x2f186SNQjpPGLKSW-2">
          <mxGeometry x="1" relative="1" as="geometry">
            <mxPoint y="20" as="offset" />
          </mxGeometry>
        </mxCell>
      </root>
    </mxGraphModel>
  </diagram>
</mxfile>
